#!OML:ASF I:\golf\golf\golf 2\Subject 1\2002-09-07\Subject1.ASF
:FULLY-SPECIFIED
:DEGREES
473
root -10.2985 18.0141 4.42362 -151.087 75.3286 -168.298
lowerback 2.62058 2.11742 -0.764132
upperback 3.79645 2.89368 3.95918
thorax 2.19687 1.43324 4.49294
lowerneck -13.9363 6.57788 6.54973
upperneck 33.0788 14.4031 -12.7619
head 15.4929 5.92467 -3.77247
rclavicle 1.59028e-014 7.39479e-014
rhumerus -16.6566 21.3768 -98.9479
rradius 48.4604
rwrist -51.3117
rhand -33.8136 -10.009
rfingers 7.12502
rthumb -6.99961 -39.8733
lclavicle 1.59028e-014 7.39479e-014
lhumerus -10.2078 -48.2674 106.566
lradius 42.4185
lwrist 51.3054
lhand -6.84415 63.9201
lfingers 7.12502
lthumb -160.979 86.9899
rfemur -23.3995 -8.73637 16.8395
rtibia 26.1057
rfoot -11.3366 -17.6899
rtoes -1.63252
lfemur -31.83 0.93776 -10.5033
ltibia 22.667
lfoot -7.56333 -17.0997
ltoes -6.18996
474
root -10.2943 18.0157 4.419 -151.301 75.2395 -168.49
lowerback 2.58802 2.04822 -0.761934
upperback 3.79171 2.80088 3.9676
thorax 2.21765 1.38644 4.50308
lowerneck -13.6883 6.6946 6.03593
upperneck 32.7646 14.444 -12.2761
head 15.1842 5.94523 -3.46638
rclavicle 2.50469e-014 -1.82882e-014
rhumerus -16.6852 21.504 -98.9263
rradius 48.4846
rwrist -51.3092
rhand -33.7505 -10.0885
rfingers 7.12502
rthumb -6.93871 -39.9547
lclavicle 2.50469e-014 -1.82882e-014
lhumerus -10.1354 -48.1877 106.517
lradius 42.4112
lwrist 51.3294
lhand -6.8415 63.9096
lfingers 7.12502
lthumb -160.977 87.0007
rfemur -23.2909 -8.75544 16.7978
rtibia 26.0433
rfoot -11.4232 -17.7862
rtoes -1.54339
lfemur -31.8027 0.783214 -10.4938
ltibia 22.6734
lfoot -7.53923 -17.1051
ltoes -6.04965
475
root -10.2929 18.0145 4.40968 -152.121 74.8977 -169.302
lowerback 2.59031 1.88817 -0.700555
upperback 3.76255 2.58756 3.93004
thorax 2.20799 1.28143 4.43101
lowerneck -13.4832 6.80606 5.90863
upperneck 32.4897 14.5326 -12.1619
head 14.9928 5.99232 -3.37875
rclavicle 7.15625e-015 2.62396e-014
rhumerus -16.7374 21.5279 -98.9714
rradius 48.5291
rwrist -51.2598
rhand -33.753 -10.2003
rfingers 7.12502
rthumb -6.94114 -40.0665
lclavicle 7.15625e-015 2.62396e-014
lhumerus -10.1234 -48.2179 106.459
lradius 42.4425
lwrist 51.3652
lhand -6.91702 63.9681
lfingers 7.12502
lthumb -161.049 86.935
rfemur -23.1583 -9.0072 16.7021
rtibia 26.0139
rfoot -11.4491 -18.1129
rtoes -2.26019
lfemur -31.8527 0.472065 -10.5891
ltibia 22.6506
lfoot -7.44314 -17.2393
ltoes -5.96626
476
root -10.2913 18.0155 4.41256 -151.548 75.1321 -168.675
lowerback 2.62389 2.00366 -0.70794
upperback 3.75095 2.74111 3.88459
thorax 2.16631 1.35867 4.38389
lowerneck -13.4334 6.85544 6.08006
upperneck 32.3856 14.5973 -12.3148
head 14.9739 6.02751 -3.45857
rclavicle -5.96354e-015 4.77083e-014
rhumerus -16.7645 21.4269 -99.0351
rradius 48.6065
rwrist -51.2903
rhand -33.8073 -10.2061
rfingers 7.12502
rthumb -6.99359 -40.0706
lclavicle -5.96354e-015 4.77083e-014
lhumerus -10.1608 -48.4332 106.393
lradius 42.5094
lwrist 51.44
lhand -6.93959 63.9625
lfingers 7.12502
lthumb -161.071 86.9386
rfemur -23.1389 -8.73538 16.7678
rtibia 25.9795
rfoot -11.3612 -18.2775
rtoes -2.73158
lfemur -31.7273 0.675769 -10.5121
ltibia 22.629
lfoot -7.48459 -17.1086
ltoes -6.11908
477
root -10.2894 18.0152 4.40581 -151.82 74.9761 -168.95
lowerback 2.58869 1.99029 -0.552787
upperback 3.71765 2.7233 3.80247
thorax 2.16335 1.35372 4.21143
lowerneck -13.3777 6.84329 6.15311
upperneck 32.3234 14.5604 -12.35
head 14.9367 6.02127 -3.49312
rclavicle -1.63003e-014 4.45278e-014
rhumerus -16.7539 21.2014 -99.0515
rradius 48.6254
rwrist -51.3234
rhand -33.8181 -10.1375
rfingers 7.12502
rthumb -7.00395 -40.0016
lclavicle -1.63003e-014 4.45278e-014
lhumerus -10.241 -48.6395 106.434
lradius 42.5261
lwrist 51.4789
lhand -6.77862 63.8011
lfingers 7.12502
lthumb -160.916 87.1152
rfemur -23.0641 -8.85839 16.7456
rtibia 25.9258
rfoot -11.4534 -18.2986
rtoes -2.2144
lfemur -31.7526 0.523759 -10.5294
ltibia 22.633
lfoot -7.59741 -17.0449
ltoes -6.5334
478
root -10.2843 18.0174 4.40858 -151.038 75.322 -168.176
lowerback 2.51636 2.16329 -0.621767
upperback 3.67263 2.95084 3.78086
thorax 2.13768 1.46569 4.22645
lowerneck -13.3219 6.82223 6.0737
upperneck 32.3094 14.5136 -12.253
head 14.8921 6.00702 -3.44923
rclavicle -2.0276e-014 -5.88403e-014
rhumerus -16.8242 20.9949 -99.053
rradius 48.663
rwrist -51.3167
rhand -33.7617 -10.1608
rfingers 7.12502
rthumb -6.94949 -40.0267
lclavicle -2.0276e-014 -5.88403e-014
lhumerus -10.3978 -48.8064 106.577
lradius 42.5368
lwrist 51.6181
lhand -6.78089 63.6296
lfingers 7.12502
lthumb -160.918 87.2864
rfemur -23.1102 -8.48808 16.7844
rtibia 25.8471
rfoot -11.4227 -18.2394
rtoes -2.00697
lfemur -31.6713 0.810708 -10.4633
ltibia 22.6616
lfoot -7.78852 -16.8868
ltoes -7.02916
479
root -10.2797 18.0186 4.40831 -150.384 75.4404 -167.49
lowerback 2.48285 2.22487 -0.608575
upperback 3.62061 3.03264 3.80324
thorax 2.09586 1.50733 4.24091
lowerneck -13.4335 6.76581 6.2121
upperneck 32.5168 14.5265 -12.4349
head 15.0519 6.00439 -3.54831
rclavicle -7.15625e-014 3.10104e-014
rhumerus -16.9581 20.9324 -99.0823
rradius 48.7444
rwrist -51.3176
rhand -33.695 -10.3213
rfingers 7.12502
rthumb -6.88513 -40.1893
lclavicle -7.15625e-014 3.10104e-014
lhumerus -10.5493 -48.9028 106.68
lradius 42.5633
lwrist 51.7988
lhand -6.9862 63.6311
lfingers 7.12502
lthumb -161.116 87.2655
rfemur -23.09 -8.31812 16.9035
rtibia 25.7957
rfoot -11.3037 -18.2694
rtoes -2.49648
lfemur -31.5865 0.908457 -10.3189
ltibia 22.649
lfoot -7.76031 -16.8347
ltoes -6.81223
480
root -10.2775 18.0202 4.40665 -150.283 75.432 -167.368
lowerback 2.46212 2.1799 -0.66724
upperback 3.57841 2.97207 3.85088
thorax 2.0634 1.47586 4.32385
lowerneck -13.7409 6.69918 6.46349
upperneck 32.9144 14.6237 -12.815
head 15.3986 6.01863 -3.73561
rclavicle -3.57812e-014 -4.77083e-015
rhumerus -17.0612 21.0578 -99.0959
rradius 48.7566
rwrist -51.3336
rhand -33.6696 -10.2723
rfingers 7.12502
rthumb -6.86067 -40.1412
lclavicle -3.57812e-014 -4.77083e-015
lhumerus -10.5836 -48.829 106.719
lradius 42.5708
lwrist 51.8748
lhand -7.006 63.6621
lfingers 7.12502
lthumb -161.135 87.2327
rfemur -23.0423 -8.32397 16.9416
rtibia 25.7404
rfoot -11.2795 -18.2788
rtoes -2.48456
lfemur -31.5521 0.891566 -10.2759
ltibia 22.6303
lfoot -7.67647 -16.8531
ltoes -6.54105
481
root -10.2762 18.0216 4.40081 -151.059 75.3166 -168.135
lowerback 2.47144 2.06777 -0.816009
upperback 3.5585 2.82069 3.86753
thorax 2.04215 1.3966 4.42614
lowerneck -13.7723 6.77438 6.40494
upperneck 32.9245 14.7908 -12.8793
head 15.4394 6.07409 -3.7186
rclavicle -6.12257e-014 1.03368e-014
rhumerus -17.0896 21.1763 -99.0774
rradius 48.6948
rwrist -51.3473
rhand -33.5917 -9.91055
rfingers 7.12502
rthumb -6.78539 -39.7818
lclavicle -6.12257e-014 1.03368e-014
lhumerus -10.5253 -48.7339 106.702
lradius 42.5844
lwrist 51.8824
lhand -6.96092 63.723
lfingers 7.12502
lthumb -161.092 87.176
rfemur -22.9606 -8.49596 16.7789
rtibia 25.7278
rfoot -11.3863 -18.2726
rtoes -1.87161
lfemur -31.5342 0.722145 -10.4284
ltibia 22.582
lfoot -7.60757 -16.9035
ltoes -6.25887
482
root -10.2715 18.0237 4.40294 -150.849 75.6797 -167.899
lowerback 2.45016 2.17512 -1.0398
upperback 3.56443 2.95941 3.82599
thorax 2.04027 1.46019 4.50837
lowerneck -13.4445 6.95632 6.21028
upperneck 32.4923 14.9423 -12.7113
head 15.1371 6.15297 -3.58121
rclavicle 4.77083e-014 4.69132e-014
rhumerus -17.0702 21.0563 -99.1238
rradius 48.6715
rwrist -51.4039
rhand -33.4441 -9.76246
rfingers 7.12502
rthumb -6.64296 -39.6383
lclavicle 4.77083e-014 4.69132e-014
lhumerus -10.4761 -48.7021 106.637
lradius 42.5818
lwrist 51.6329
lhand -6.92223 63.7714
lfingers 7.12502
lthumb -161.054 87.1313
rfemur -22.9989 -8.26283 16.6817
rtibia 25.7679
rfoot -11.3751 -18.1998
rtoes -1.81608
lfemur -31.3512 0.931675 -10.5033
ltibia 22.5012
lfoot -7.62969 -16.756
ltoes -6.1176
483
root -10.2687 18.0215 4.39917 -151.095 75.6942 -168.162
lowerback 2.41245 2.19027 -0.974382
upperback 3.54575 2.97757 3.70285
thorax 2.04965 1.47048 4.34402
lowerneck -13.2663 7.03782 6.18648
upperneck 32.1957 14.9716 -12.659
head 14.9499 6.17978 -3.54727
rclavicle -2.54444e-014 -4.77083e-014
rhumerus -17.0214 20.8386 -99.1982
rradius 48.7221
rwrist -51.4785
rhand -33.4235 -9.85729
rfingers 7.12502
rthumb -6.62304 -39.7337
lclavicle -2.54444e-014 -4.77083e-014
lhumerus -10.489 -48.7756 106.573
lradius 42.5883
lwrist 51.4083
lhand -6.90656 63.7484
lfingers 7.12502
lthumb -161.039 87.1558
rfemur -23.0322 -8.32989 16.6263
rtibia 25.8299
rfoot -11.3705 -18.1793
rtoes -1.88321
lfemur -31.2995 0.898701 -10.5828
ltibia 22.4074
lfoot -7.60365 -16.7394
ltoes -6.29577
